<svg id="Capa_1" enable-background="new 0 0 497 497" height="512" viewBox="0 0 497 497" width="512" xmlns="http://www.w3.org/2000/svg"><g><path d="m422 390h-30l-106 60 136-30c8.284 0 15-6.716 15-15s-6.716-15-15-15z" fill="#894d40"/><path d="m407 405c0-8.284-6.716-15-15-15h-242c-8.284 0-15 6.716-15 15s6.716 15 15 15l136 30 106-30c8.284 0 15-6.716 15-15z" fill="#995e49"/><path d="m386.506 420h-236.506l-13.859 21.712c-10.056 15.753-27.453 25.288-46.141 25.288v15h392z" fill="#b88567"/><path d="m435.859 441.712-13.859-21.712h-35.494l13.859 21.712c10.055 15.753 27.453 25.288 46.141 25.288l35.494 15v-15c-18.689 0-36.086-9.535-46.141-25.288z" fill="#aa6f51"/><path d="m196 142.5-30 37.5 30 37.5h45v-75z" fill="#ffd478"/><path d="m166 142.5-30 37.5 30 37.5h30v-75z" fill="#894d40"/><path d="m37.5 142.5c-20.711 0-37.5 16.789-37.5 37.5s16.789 37.5 37.5 37.5h128.5v-75z" fill="#995e49"/><path d="m241 142.5h60v75h-60z" fill="#ffd478"/><path d="m407 75h60v210h-60z" fill="#ffd478"/><path d="m286 75h151v210h-151z" fill="#ffe7ad"/><path d="m482 467h-30v30h30c8.284 0 15-6.716 15-15s-6.716-15-15-15z" fill="#894d40"/><path d="m467 482c0-8.284-6.716-15-15-15h-362c-8.284 0-15 6.716-15 15s6.716 15 15 15h362c8.284 0 15-6.716 15-15z" fill="#995e49"/><path d="m467 270h-30l-60.5 60 90.5-30c8.284 0 15-6.716 15-15s-6.716-15-15-15z" fill="#894d40"/><path d="m452 285c0-8.284-6.716-15-15-15h-151c-8.284 0-15 6.716-15 15s6.716 15 15 15l90.5 30 60.5-30c8.284 0 15-6.716 15-15z" fill="#995e49"/><path d="m467 90h-30l-60.5-60 90.5 30c8.284 0 15 6.716 15 15s-6.716 15-15 15z" fill="#894d40"/><path d="m452 75c0 8.284-6.716 15-15 15h-151c-8.284 0-15-6.716-15-15s6.716-15 15-15l90.5-30 60.5 30c8.284 0 15 6.716 15 15z" fill="#995e49"/><path d="m256 217.5v-75c0-8.284-6.716-15-15-15s-15 6.716-15 15v75c0 8.284 6.716 15 15 15s15-6.716 15-15z" fill="#995e49"/><path d="m467 0h-30v60h30c16.569 0 30-13.431 30-30s-13.431-30-30-30z" fill="#aa6f51"/><path d="m467 30c0-16.569-13.431-30-30-30h-151c-16.569 0-30 13.431-30 30s13.431 30 30 30h151c16.569 0 30-13.431 30-30z" fill="#b88567"/><path d="m467 300h-30v60h30c16.569 0 30-13.431 30-30s-13.431-30-30-30z" fill="#aa6f51"/><path d="m467 330c0-16.569-13.431-30-30-30h-151c-16.569 0-30 13.431-30 30s13.431 30 30 30h151c16.569 0 30-13.431 30-30z" fill="#b88567"/></g></svg>